<svg xmlns="http://www.w3.org/2000/svg" viewBox="0 0 120 120"><rect width="120" height="120" rx="28" fill="#0b0b0f"/><svg x="14" y="14" width="92" height="92" viewBox="0 0 100 100"><defs><linearGradient id="g" x1="0.1" y1="0" x2="0.9" y2="1"><stop offset="0" stop-color="#ff5a6e"/><stop offset="0.5" stop-color="#e3072f"/><stop offset="1" stop-color="#8f0019"/></linearGradient><linearGradient id="s" x1="0" y1="0" x2="0" y2="1"><stop offset="0" stop-color="#fff" stop-opacity="0.38"/><stop offset="0.5" stop-color="#fff" stop-opacity="0"/></linearGradient><mask id="t"><path d="M20 12 L20 88 L86 50 Z" fill="#fff" stroke="#fff" stroke-width="14" stroke-linejoin="round"/><path d="M31 35h29a4.5 4.5 0 0 1 0 9H41v6h14a4 4 0 0 1 0 8H41v10a5 5 0 0 1-10 0V40a5 5 0 0 1 5-5z" fill="#000"/></mask></defs><g mask="url(#t)"><rect width="100" height="100" fill="url(#g)"/><rect width="100" height="100" fill="url(#s)"/></g></svg></svg>
